<?xml version="1.0" encoding="UTF-8"?>
<svg data-bbox="0 0 812.06 473.85" viewBox="0 0 812.05 473.84" xmlns="http://www.w3.org/2000/svg" data-type="ugc">
    <g>
        <defs>
            <linearGradient gradientUnits="userSpaceOnUse" y2="2.83" x2="409.34" y1="436.04" x1="409.34" id="18ad077f-96dd-463e-948d-f0807cc8fec5">
                <stop stop-color="#9a9a9a" offset="0"/>
                <stop stop-color="#a1a1a1" offset=".09"/>
                <stop stop-color="#b7b7b7" offset=".24"/>
                <stop stop-color="#dadada" offset=".42"/>
                <stop stop-color="#e2e2e2" offset=".45"/>
                <stop stop-color="#c5c5c5" offset="1"/>
            </linearGradient>
            <linearGradient gradientUnits="userSpaceOnUse" y2="0" x2="409.32" y1="22.61" x1="409.32" id="a0782ad4-d056-48ff-a493-b7207e9f2bc4">
                <stop stop-color="#404040" offset="0"/>
                <stop stop-color="#424242" offset=".28"/>
                <stop stop-color="#4a4a4a" offset=".45"/>
                <stop stop-color="#595959" offset=".59"/>
                <stop stop-color="#6d6d6d" offset=".71"/>
                <stop stop-color="#878787" offset=".82"/>
                <stop stop-color="#a7a7a7" offset=".92"/>
                <stop stop-color="#c5c5c5" offset="1"/>
            </linearGradient>
            <linearGradient gradientUnits="userSpaceOnUse" y2="443.86" x2="406.03" y1="443.86" x1="0" id="a8e65a1a-f7f7-411f-878a-06ef5f85d84d">
                <stop stop-color="#929292" offset="0"/>
                <stop stop-color="#c1c1c1" offset=".01"/>
                <stop stop-color="#b1b1b1" offset=".03"/>
                <stop stop-color="#9c9c9c" offset=".05"/>
                <stop stop-color="#a3a3a3" offset=".07"/>
                <stop stop-color="#afafaf" offset=".09"/>
                <stop stop-color="#cfcfcf" offset="1"/>
            </linearGradient>
            <linearGradient gradientUnits="userSpaceOnUse" y2="437.41" x2="812.05" y1="437.41" x1="0" id="defdf0e8-7257-40f4-8c07-8e0bdc3c11a9">
                <stop stop-color="#f8f8f8" offset="0"/>
                <stop stop-color="#d0d0d0" offset=".06"/>
                <stop stop-color="#f8f8f8" offset=".5"/>
                <stop stop-color="#d0d0d0" offset=".87"/>
                <stop stop-color="#d3d3d3" offset=".88"/>
                <stop stop-color="#e8e8e8" offset=".95"/>
                <stop stop-color="#f1f1f1" offset="1"/>
            </linearGradient>
            <linearGradient gradientUnits="userSpaceOnUse" y2="443.86" x2="812.05" y1="443.86" x1="406.03" id="a5c4ca4b-8a4b-4720-8d4b-56d51180fbbf">
                <stop stop-color="#cfcfcf" offset="0"/>
                <stop stop-color="#afafaf" offset=".91"/>
                <stop stop-color="#a3a3a3" offset=".93"/>
                <stop stop-color="#9c9c9c" offset=".95"/>
                <stop stop-color="#b1b1b1" offset=".97"/>
                <stop stop-color="#c1c1c1" offset=".99"/>
                <stop stop-color="#929292" offset="1"/>
            </linearGradient>
            <linearGradient gradientUnits="userSpaceOnUse" y2="443.5" x2="406.03" y1="443.5" x1="0" id="e3d6f36f-eb34-4f23-bec9-49fd16582061">
                <stop stop-color="#666666" offset="0"/>
                <stop stop-color="#d5d5d5" offset=".01"/>
                <stop stop-color="#bdbdbd" offset=".02"/>
                <stop stop-color="#858585" offset=".04"/>
                <stop stop-color="#707070" offset=".05"/>
                <stop stop-color="#787878" offset=".06"/>
                <stop stop-color="#8d8d8d" offset=".07"/>
                <stop stop-color="#b1b1b1" offset=".09"/>
                <stop stop-color="#bcbcbc" offset=".09"/>
                <stop stop-color="#f1f1f1" offset="1"/>
            </linearGradient>
            <linearGradient gradientUnits="userSpaceOnUse" y2="443.5" x2="812.05" y1="443.5" x1="406.03" id="2d8a8623-254d-407d-8641-f439308db625">
                <stop stop-color="#f1f1f1" offset="0"/>
                <stop stop-color="#bcbcbc" offset=".91"/>
                <stop stop-color="#b1b1b1" offset=".91"/>
                <stop stop-color="#8d8d8d" offset=".93"/>
                <stop stop-color="#787878" offset=".94"/>
                <stop stop-color="#707070" offset=".95"/>
                <stop stop-color="#858585" offset=".96"/>
                <stop stop-color="#bdbdbd" offset=".98"/>
                <stop stop-color="#d5d5d5" offset=".99"/>
                <stop stop-color="#666666" offset="1"/>
            </linearGradient>
            <linearGradient gradientUnits="userSpaceOnUse" y2="441.81" x2="463.82" y1="441.81" x1="348.23" id="374d0bc3-ac4d-44a2-a2b7-ece5a68cf5f6">
                <stop stop-color="#9f9f9f" offset="0"/>
                <stop stop-color="#acacac" offset=".04"/>
                <stop stop-color="#e5e5e5" offset=".51"/>
                <stop stop-color="#acacac" offset=".96"/>
                <stop stop-color="#9f9f9f" offset="1"/>
            </linearGradient>
            <linearGradient gradientUnits="userSpaceOnUse" y2="442.16" x2="464.27" y1="442.16" x1="347.78" id="653cfa8c-3e02-4cd1-a42c-0fbe2fd20e63">
                <stop stop-color="#cccccc" offset="0"/>
                <stop stop-color="#b3b3b3" offset=".52"/>
                <stop stop-color="#b5b5b5" offset=".77"/>
                <stop stop-color="#bdbdbd" offset=".89"/>
                <stop stop-color="#cacaca" offset=".99"/>
                <stop stop-color="#cccccc" offset="1"/>
            </linearGradient>
            <linearGradient gradientUnits="userSpaceOnUse" y2="442.16" x2="464.27" y1="442.16" x1="347.78" id="65b63662-3be5-4a57-a384-ced8623c369d">
                <stop stop-color="#f7f7f7" offset="0"/>
                <stop stop-color="#f8f8f8" offset=".52"/>
                <stop stop-color="#f7f7f7" offset="1"/>
            </linearGradient>
            <linearGradient gradientUnits="userSpaceOnUse" y2="450" x2="406.03" y1="460.83" x1="406.03" id="04e30d9e-14a8-4dd1-86cf-77ae11aac114">
                <stop stop-color="#575757" offset="0"/>
                <stop stop-color="#b9b9b9" offset=".74"/>
                <stop stop-color="#b5b5b5" offset=".85"/>
                <stop stop-color="#ababab" offset=".94"/>
                <stop stop-color="#9f9f9f" offset="1"/>
            </linearGradient>
            <linearGradient gradientUnits="userSpaceOnUse" y2="474.07" x2="662.4" y1="-32.09" x1="156.23" id="6e3323b7-8110-4603-8c4f-edb3a661d741">
                <stop stop-color="#f2f3f4" offset="0"/>
                <stop stop-color="#edeeee" offset=".36"/>
                <stop stop-color="#dedfe0" offset=".78"/>
                <stop stop-color="#d5d6d6" offset="1"/>
            </linearGradient>
            <mask maskUnits="userSpaceOnUse" height="32766" width="686.72" y="-8426.9" x="62.67" id="a7029a65-37e1-4995-a13b-3820fadbadcf"/>
            <mask maskUnits="userSpaceOnUse" height="26.02" width="686.72" y="447.82" x="62.67" id="9401903d-7a1b-47c7-8b60-d7eee3b8d45a">
                <g filter="url(#3afdde1e-bc91-4f7b-aad2-9309c3b24a0a)">
                    <g mask="url(#a7029a65-37e1-4995-a13b-3820fadbadcf)">
                        <path d="M749.39 460.54c0 7.19-122.93 13.31-346.82 13.31s-339.9-5.83-339.9-13.01 116.02-13.01 339.9-13.01 346.82 5.53 346.82 12.71Z" style="mix-blend-mode:multiply" fill="url(#8bc79bc7-f0fe-49b7-bf20-d8d7709d7681)" stroke-width="0"/>
                    </g>
                </g>
            </mask>
            <mask maskUnits="userSpaceOnUse" height="32766" width="116.49" y="-8426.9" x="347.78" id="3ec518de-9023-4a2f-b137-dee95622d96f"/>
            <mask maskUnits="userSpaceOnUse" height="10.1" width="116.49" y="437.1" x="347.78" id="941d48b0-43ed-445b-9a39-7dc2a34f2cff">
                <g filter="url(#3851b0e9-5fcd-4ba6-8da6-4c2893bda1d4)">
                    <g mask="url(#3ec518de-9023-4a2f-b137-dee95622d96f)">
                        <path d="M463.82 437.1c0 2.6-1.05 4.95-2.76 6.65a9.379 9.379 0 0 1-6.65 2.76h-96.77c-5.19 0-9.4-4.22-9.4-9.41h-.46v.7c0 5.19 4.22 9.4 9.41 9.4h97.67c5.2 0 9.41-4.21 9.41-9.4v-.7h-.45Z" style="mix-blend-mode:multiply" fill="url(#653cfa8c-3e02-4cd1-a42c-0fbe2fd20e63)" stroke-width="0"/>
                    </g>
                </g>
            </mask>
            <radialGradient gradientUnits="userSpaceOnUse" gradientTransform="matrix(2.15 0 0 .07 -1367.04 2079.61)" r="174.72" fy="-23460.54" fx="824.49" cy="-23460.54" cx="824.49" id="8bc79bc7-f0fe-49b7-bf20-d8d7709d7681">
                <stop stop-color="#ffffff" offset="0"/>
                <stop stop-color="#f5f5f5" offset=".09"/>
                <stop stop-color="#dadada" offset=".23"/>
                <stop stop-color="#afafaf" offset=".41"/>
                <stop stop-color="#737373" offset=".63"/>
                <stop stop-color="#282828" offset=".88"/>
                <stop stop-color="#000000" offset="1"/>
            </radialGradient>
            <radialGradient gradientUnits="userSpaceOnUse" gradientTransform="matrix(2.15 0 0 .07 -1367.04 2079.61)" r="174.72" fy="-23460.54" fx="824.49" cy="-23460.54" cx="824.49" id="12bf11bb-6dd1-4ce3-b410-336c63bb3e39">
                <stop stop-color="#000000" offset="0"/>
                <stop stop-color="#000000" offset="1"/>
            </radialGradient>
            <filter filterUnits="userSpaceOnUse" color-interpolation-filters="sRGB" height="26.02" width="686.72" y="447.82" x="62.67" id="3afdde1e-bc91-4f7b-aad2-9309c3b24a0a">
                <feFlood result="bg" flood-color="#ffffff"/>
                <feBlend in2="bg" in="SourceGraphic"/>
            </filter>
            <filter filterUnits="userSpaceOnUse" color-interpolation-filters="sRGB" height="10.1" width="116.49" y="437.1" x="347.78" id="3851b0e9-5fcd-4ba6-8da6-4c2893bda1d4">
                <feFlood result="bg" flood-color="#ffffff"/>
                <feBlend in2="bg" in="SourceGraphic"/>
            </filter>
        </defs>
        <g>
            <g mask="url(#9401903d-7a1b-47c7-8b60-d7eee3b8d45a)">
                <path d="M749.39 460.54c0 7.19-122.93 13.31-346.82 13.31s-339.9-5.83-339.9-13.01 116.02-13.01 339.9-13.01 346.82 5.53 346.82 12.71Z" style="mix-blend-mode:multiply" fill="url(#12bf11bb-6dd1-4ce3-b410-336c63bb3e39)" opacity=".4"/>
            </g>
            <path d="M718.4 2.83H100.32c-11.08 0-20.06 8.86-20.06 19.78v413.43h2.87V19.78c0-.87.07-1.73.2-2.57.04-.28.09-.56.15-.83.06-.27.12-.55.19-.82.07-.27.15-.54.23-.8a16.952 16.952 0 0 1 3.96-6.64c.09-.1.19-.19.29-.29.87-.86 1.84-1.63 2.88-2.29.35-.22.7-.43 1.07-.62.36-.2.73-.38 1.11-.55a17.433 17.433 0 0 1 7.05-1.49h618.08c2.95 0 5.74.74 8.17 2.04.36.2.72.4 1.07.62.46.29.91.61 1.34.94.22.17.43.34.63.52.31.27.61.54.9.83l.29.29c.19.2.38.39.55.6 2.61 2.97 4.19 6.84 4.19 11.06v416.26h2.9V21.37c-.65-10.34-9.36-18.54-20.01-18.54Z" fill="url(#18ad077f-96dd-463e-948d-f0807cc8fec5)"/>
            <path d="M80.22 19.78C80.22 8.86 89.2 0 100.28 0h618.08c11.08 0 20.05 8.86 20.05 19.78v1.58c-.65-10.34-9.36-18.54-20.01-18.54H100.32c-11.08 0-20.06 8.86-20.06 19.78l-.04-2.83Z" fill="url(#a0782ad4-d056-48ff-a493-b7207e9f2bc4)"/>
            <path d="M735.51 424.47v11.58H83.13v-11.58h652.38z"/>
            <path d="M735.51 19.87v404.59H83.13V19.87c0-9.38 7.69-17.01 17.15-17.01h618.08c9.46 0 17.15 7.63 17.15 17.01Z"/>
            <path d="M738.41 436.04v1.06H80.26v-1.06h658.15z"/>
            <path fill="url(#a8e65a1a-f7f7-411f-878a-06ef5f85d84d)" d="M406.03 437.71V450H0v-12.29h406.03z"/>
            <path fill="url(#defdf0e8-7257-40f4-8c07-8e0bdc3c11a9)" d="M812.05 437.1v.61H0v-.61h812.05z"/>
            <path fill="url(#a5c4ca4b-8a4b-4720-8d4b-56d51180fbbf)" d="M812.06 437.71V450H406.03v-12.29h406.03z"/>
            <path fill="url(#e3d6f36f-eb34-4f23-bec9-49fd16582061)" d="M406.03 437.71v11.56H0v-11.56h406.03z"/>
            <path fill="url(#2d8a8623-254d-407d-8641-f439308db625)" d="M812.06 437.71v11.56H406.03v-11.56h406.03z"/>
            <path d="M463.82 437.1c0 2.6-1.05 4.95-2.76 6.65a9.379 9.379 0 0 1-6.65 2.76h-96.77c-5.19 0-9.4-4.22-9.4-9.41h115.58Z" fill="url(#374d0bc3-ac4d-44a2-a2b7-ece5a68cf5f6)"/>
            <g mask="url(#941d48b0-43ed-445b-9a39-7dc2a34f2cff)">
                <path d="M463.82 437.1c0 2.6-1.05 4.95-2.76 6.65a9.379 9.379 0 0 1-6.65 2.76h-96.77c-5.19 0-9.4-4.22-9.4-9.41h-.46v.7c0 5.19 4.22 9.4 9.41 9.4h97.67c5.2 0 9.41-4.21 9.41-9.4v-.7h-.45Z" fill="url(#65b63662-3be5-4a57-a384-ced8623c369d)"/>
            </g>
            <path d="M0 450c28.55 7.18 58.29 10.83 88.19 10.83h635.66c29.91 0 59.64-3.65 88.19-10.83H0Z" fill="url(#04e30d9e-14a8-4dd1-86cf-77ae11aac114)"/>
            <path fill="url(#6e3323b7-8110-4603-8c4f-edb3a661d741)" d="M722.01 27.51v386.95H96.63V27.51h625.38z"/>
        </g>
    </g>
</svg>
